<svg width="20" height="20" xmlns="http://www.w3.org/2000/svg">
 <!-- Created with Method Draw - http://github.com/duopixel/Method-Draw/ -->

 <g>
  <title>background</title>
  <rect fill="#fff" id="canvas_background" height="22" width="22" y="-1" x="-1"/>
 </g>
 <g>
  <title>Layer 1</title>
  <path stroke="#3c8cae" id="svg_72" d="m9.77035,1.24616c-4.79689,0 -8.68512,3.75374 -8.68512,8.38421c0,4.6307 3.88823,8.3842 8.68512,8.3842c4.79666,0 8.68512,-3.7535 8.68512,-8.3842c0,-4.63047 -3.88846,-8.38421 -8.68512,-8.38421zm0.79353,13.21317l-1.6176,0l0,-1.49749l1.6176,0l0,1.49749zm0,-3.09644l0,0.49491l-1.6176,0l0,-0.60979c0,-1.84012 2.16923,-2.13213 2.16923,-3.43996c0,-0.59635 -0.55233,-1.05317 -1.27542,-1.05317c-0.74929,0 -1.40648,0.53297 -1.40648,0.53297l-0.92094,-1.1047c0,0 0.90772,-0.91389 2.47217,-0.91389c1.48607,0 2.86588,0.88837 2.86588,2.38608c0.00069,2.09518 -2.28684,2.3368 -2.28684,3.70755l0,0z" stroke-opacity="null" fill="none"/>
 </g>
</svg>