<?xml version="1.0" encoding="UTF-8"?>
<svg xmlns="http://www.w3.org/2000/svg" xmlns:xlink="http://www.w3.org/1999/xlink" width="22" height="22" viewBox="0 0 20 20" version="1.1">
<g id="surface1">
<path style=" stroke:none;fill-rule:nonzero;fill:rgb(0%,0%,0%);fill-opacity:1;" d="M 19.234375 15.539062 L 19.144531 15.257812 C 18.921875 14.605469 18.203125 13.921875 17.542969 13.742188 L 15.09375 13.074219 C 14.429688 12.894531 13.480469 13.136719 12.996094 13.625 L 12.109375 14.507812 C 8.886719 13.640625 6.363281 11.113281 5.492188 7.894531 L 6.378906 7.007812 C 6.867188 6.519531 7.109375 5.574219 6.929688 4.910156 L 6.261719 2.460938 C 6.078125 1.796875 5.398438 1.078125 4.746094 0.859375 L 4.464844 0.765625 C 3.8125 0.550781 2.882812 0.769531 2.394531 1.253906 L 1.070312 2.582031 C 0.832031 2.816406 0.683594 3.492188 0.683594 3.492188 C 0.636719 7.703125 2.285156 11.757812 5.261719 14.734375 C 8.234375 17.703125 12.273438 19.351562 16.46875 19.316406 C 16.492188 19.316406 17.183594 19.167969 17.421875 18.933594 L 18.746094 17.609375 C 19.234375 17.121094 19.453125 16.191406 19.234375 15.539062 Z M 19.234375 15.539062 "/>
</g>
</svg>
